G04 ---------------------------- Layer name :TOP SILK LAYER*
G04 EasyEDA v5.7.22, Tue, 28 Aug 2018 09:43:57 GMT*
G04 05ccef7fa68345538657c4b36dae5f98*
G04 Gerber Generator version 0.2*
G04 Scale: 100 percent, Rotated: No, Reflected: No *
G04 Dimensions in inches *
G04 leading zeros omitted , absolute positions ,2 integer and 4 decimal *
%FSLAX24Y24*%
%MOIN*%
G90*
G70D02*

%ADD10C,0.010000*%
%ADD28C,0.004724*%
%ADD29C,0.007900*%
%ADD30C,0.008000*%
%ADD31C,0.007992*%
%ADD32C,0.023622*%
%ADD33C,0.011811*%
%ADD34C,0.007000*%

%LPD*%
G54D10*
G01X2700Y12401D02*
G01X8998Y12401D01*
G01X8998Y12401D02*
G01X8998Y21850D01*
G01X8998Y21850D02*
G01X2700Y21850D01*
G01X2700Y12401D01*
G01X3094Y19094D02*
G01X8605Y19094D01*
G01X7817Y19486D02*
G01X3880Y19486D01*
G01X3880Y21455D01*
G01X4275Y21455D01*
G01X4275Y20275D01*
G01X4669Y20275D01*
G01X4669Y21455D01*
G01X5061Y21455D01*
G01X5061Y20275D01*
G01X5455Y20275D01*
G01X5455Y21455D01*
G01X5850Y21455D01*
G01X5850Y20275D01*
G01X6242Y20275D01*
G01X6242Y21455D01*
G01X8605Y21455D01*
G01X3486Y18305D02*
G01X3486Y13188D01*
G01X8211Y13188D01*
G01X8211Y18305D01*
G01X3486Y18305D01*
G01X16268Y3350D02*
G01X16268Y2557D01*
G01X2332Y2557D01*
G01X2332Y4642D01*
G01X16268Y4642D01*
G01X16268Y3850D01*
G54D28*
G01X10956Y17167D02*
G01X10956Y15688D01*
G01X11453Y15688D01*
G01X13643Y18053D02*
G01X13643Y15688D01*
G01X13146Y15688D01*
G54D29*
G01X12589Y13369D02*
G01X10589Y13369D01*
G01X10589Y12369D01*
G01X12589Y12369D01*
G01X12589Y13369D01*
G54D10*
G01X12800Y8700D02*
G01X10800Y8700D01*
G01X10800Y8700D02*
G01X10800Y9000D01*
G01X10800Y9000D02*
G01X10800Y9300D01*
G01X10800Y9300D02*
G01X12800Y9300D01*
G01X12800Y9300D02*
G01X12800Y9000D01*
G01X12800Y9000D02*
G01X12800Y8700D01*
G01X10800Y9000D02*
G01X10700Y9000D01*
G01X12800Y9000D02*
G01X12900Y9000D01*
G01X14600Y8100D02*
G01X15602Y8098D01*
G01X15453Y15380D02*
G01X15764Y15380D01*
G01X15603Y15209D02*
G01X15603Y15538D01*
G01X12800Y10200D02*
G01X10800Y10200D01*
G01X10800Y10200D02*
G01X10800Y10500D01*
G01X10800Y10500D02*
G01X10800Y10800D01*
G01X10800Y10800D02*
G01X12800Y10800D01*
G01X12800Y10800D02*
G01X12800Y10500D01*
G01X12800Y10500D02*
G01X12800Y10200D01*
G01X10800Y10500D02*
G01X10700Y10500D01*
G01X12800Y10500D02*
G01X12900Y10500D01*
G54D30*
G01X15100Y18300D02*
G01X16089Y18300D01*
G01X16089Y16300D01*
G01X15100Y16300D01*
G01X15100Y18300D01*
G01X15000Y12900D02*
G01X15989Y12900D01*
G01X15989Y10900D01*
G01X15000Y10900D01*
G01X15000Y12900D01*
G01X500Y17800D02*
G01X1500Y17800D01*
G01X1500Y1800D01*
G01X500Y1800D01*
G01X500Y2550D01*
G54D31*
G01X500Y17800D02*
G01X500Y2550D01*
G54D30*
G01X13650Y20000D02*
G01X12900Y20000D01*
G01X12900Y19000D01*
G01X15900Y19000D01*
G01X15900Y20000D01*
G54D31*
G01X15900Y20000D02*
G01X13650Y20000D01*
G54D30*
G01X14100Y6100D02*
G01X14100Y7090D01*
G01X16100Y7090D01*
G01X16100Y6100D01*
G01X14100Y6100D01*
G54D10*
G01X10700Y22300D02*
G01X15900Y22300D01*
G01X15900Y21100D01*
G01X10700Y21100D01*
G01X10700Y22300D01*
G01X11800Y22300D02*
G01X11800Y21100D01*
G54D34*
G01X5800Y22644D02*
G01X5800Y22338D01*
G01X5819Y22277D01*
G01X5861Y22236D01*
G01X5923Y22215D01*
G01X5963Y22215D01*
G01X6025Y22236D01*
G01X6065Y22277D01*
G01X6086Y22338D01*
G01X6086Y22644D01*
G01X6467Y22644D02*
G01X6261Y22644D01*
G01X6242Y22461D01*
G01X6261Y22482D01*
G01X6323Y22502D01*
G01X6384Y22502D01*
G01X6446Y22482D01*
G01X6486Y22440D01*
G01X6507Y22380D01*
G01X6507Y22338D01*
G01X6486Y22277D01*
G01X6446Y22236D01*
G01X6384Y22215D01*
G01X6323Y22215D01*
G01X6261Y22236D01*
G01X6242Y22257D01*
G01X6221Y22298D01*
G54D30*
G01X4117Y16301D02*
G01X4117Y15538D01*
G01X4117Y16301D02*
G01X4590Y16301D01*
G01X4117Y15938D02*
G01X4407Y15938D01*
G01X4117Y15538D02*
G01X4590Y15538D01*
G01X5338Y16192D02*
G01X5267Y16265D01*
G01X5157Y16301D01*
G01X5011Y16301D01*
G01X4903Y16265D01*
G01X4830Y16192D01*
G01X4830Y16119D01*
G01X4867Y16046D01*
G01X4903Y16011D01*
G01X4976Y15973D01*
G01X5194Y15901D01*
G01X5267Y15865D01*
G01X5303Y15828D01*
G01X5338Y15755D01*
G01X5338Y15646D01*
G01X5267Y15573D01*
G01X5157Y15538D01*
G01X5011Y15538D01*
G01X4903Y15573D01*
G01X4830Y15646D01*
G01X5578Y16301D02*
G01X5578Y15538D01*
G01X5578Y16301D02*
G01X5907Y16301D01*
G01X6015Y16265D01*
G01X6051Y16228D01*
G01X6088Y16155D01*
G01X6088Y16046D01*
G01X6051Y15973D01*
G01X6015Y15938D01*
G01X5907Y15901D01*
G01X5578Y15901D01*
G01X6328Y16155D02*
G01X6401Y16192D01*
G01X6509Y16301D01*
G01X6509Y15538D01*
G01X6786Y16119D02*
G01X6786Y16155D01*
G01X6823Y16228D01*
G01X6859Y16265D01*
G01X6932Y16301D01*
G01X7078Y16301D01*
G01X7150Y16265D01*
G01X7186Y16228D01*
G01X7223Y16155D01*
G01X7223Y16082D01*
G01X7186Y16011D01*
G01X7113Y15901D01*
G01X6750Y15538D01*
G01X7259Y15538D01*
G01X7498Y16301D02*
G01X7498Y15538D01*
G01X7498Y16301D02*
G01X7971Y16301D01*
G01X7498Y15938D02*
G01X7790Y15938D01*
G54D34*
G01X9300Y6044D02*
G01X9300Y5738D01*
G01X9319Y5676D01*
G01X9361Y5636D01*
G01X9423Y5615D01*
G01X9463Y5615D01*
G01X9525Y5636D01*
G01X9565Y5676D01*
G01X9586Y5738D01*
G01X9586Y6044D01*
G01X9967Y5984D02*
G01X9946Y6025D01*
G01X9885Y6044D01*
G01X9843Y6044D01*
G01X9782Y6025D01*
G01X9742Y5963D01*
G01X9721Y5861D01*
G01X9721Y5759D01*
G01X9742Y5676D01*
G01X9782Y5636D01*
G01X9843Y5615D01*
G01X9864Y5615D01*
G01X9926Y5636D01*
G01X9967Y5676D01*
G01X9986Y5738D01*
G01X9986Y5759D01*
G01X9967Y5819D01*
G01X9926Y5861D01*
G01X9864Y5882D01*
G01X9843Y5882D01*
G01X9782Y5861D01*
G01X9742Y5819D01*
G01X9721Y5759D01*
G01X13955Y16500D02*
G01X14260Y16500D01*
G01X14322Y16519D01*
G01X14364Y16561D01*
G01X14384Y16623D01*
G01X14384Y16663D01*
G01X14364Y16725D01*
G01X14322Y16765D01*
G01X14260Y16786D01*
G01X13955Y16786D01*
G01X13955Y17207D02*
G01X14384Y17003D01*
G01X13955Y16921D02*
G01X13955Y17207D01*
G01X11806Y14042D02*
G01X11785Y14084D01*
G01X11744Y14125D01*
G01X11705Y14144D01*
G01X11622Y14144D01*
G01X11581Y14125D01*
G01X11540Y14084D01*
G01X11519Y14042D01*
G01X11500Y13982D01*
G01X11500Y13880D01*
G01X11519Y13817D01*
G01X11540Y13776D01*
G01X11581Y13736D01*
G01X11622Y13715D01*
G01X11705Y13715D01*
G01X11744Y13736D01*
G01X11785Y13776D01*
G01X11806Y13817D01*
G01X12146Y14144D02*
G01X11942Y13859D01*
G01X12248Y13859D01*
G01X12146Y14144D02*
G01X12146Y13715D01*
G01X11900Y8344D02*
G01X11900Y7915D01*
G01X11900Y8344D02*
G01X12084Y8344D01*
G01X12144Y8325D01*
G01X12165Y8305D01*
G01X12185Y8263D01*
G01X12185Y8223D01*
G01X12165Y8182D01*
G01X12144Y8161D01*
G01X12084Y8140D01*
G01X11900Y8140D01*
G01X12043Y8140D02*
G01X12185Y7915D01*
G01X12361Y8344D02*
G01X12586Y8344D01*
G01X12464Y8182D01*
G01X12526Y8182D01*
G01X12567Y8161D01*
G01X12586Y8140D01*
G01X12607Y8080D01*
G01X12607Y8038D01*
G01X12586Y7976D01*
G01X12546Y7936D01*
G01X12485Y7915D01*
G01X12423Y7915D01*
G01X12361Y7936D01*
G01X12342Y7957D01*
G01X12321Y7998D01*
G01X15000Y10244D02*
G01X15000Y9815D01*
G01X15000Y9815D02*
G01X15244Y9815D01*
G01X15380Y10244D02*
G01X15380Y9815D01*
G01X15380Y10244D02*
G01X15646Y10244D01*
G01X15380Y10040D02*
G01X15543Y10040D01*
G01X15380Y9815D02*
G01X15646Y9815D01*
G01X15781Y10244D02*
G01X15781Y9815D01*
G01X15781Y10244D02*
G01X15925Y10244D01*
G01X15985Y10225D01*
G01X16027Y10184D01*
G01X16047Y10142D01*
G01X16068Y10082D01*
G01X16068Y9980D01*
G01X16047Y9917D01*
G01X16027Y9876D01*
G01X15985Y9836D01*
G01X15925Y9815D01*
G01X15781Y9815D01*
G01X16222Y10142D02*
G01X16222Y10163D01*
G01X16243Y10205D01*
G01X16264Y10225D01*
G01X16305Y10244D01*
G01X16386Y10244D01*
G01X16427Y10225D01*
G01X16447Y10205D01*
G01X16468Y10163D01*
G01X16468Y10123D01*
G01X16447Y10082D01*
G01X16406Y10019D01*
G01X16202Y9815D01*
G01X16489Y9815D01*
G01X15906Y16142D02*
G01X15885Y16184D01*
G01X15844Y16225D01*
G01X15805Y16244D01*
G01X15722Y16244D01*
G01X15681Y16225D01*
G01X15640Y16184D01*
G01X15619Y16142D01*
G01X15600Y16082D01*
G01X15600Y15980D01*
G01X15619Y15917D01*
G01X15640Y15876D01*
G01X15681Y15836D01*
G01X15722Y15815D01*
G01X15805Y15815D01*
G01X15844Y15836D01*
G01X15885Y15876D01*
G01X15906Y15917D01*
G01X16286Y16244D02*
G01X16082Y16244D01*
G01X16061Y16061D01*
G01X16082Y16082D01*
G01X16143Y16101D01*
G01X16205Y16101D01*
G01X16267Y16082D01*
G01X16307Y16040D01*
G01X16327Y15980D01*
G01X16327Y15938D01*
G01X16307Y15876D01*
G01X16267Y15836D01*
G01X16205Y15815D01*
G01X16143Y15815D01*
G01X16082Y15836D01*
G01X16061Y15857D01*
G01X16042Y15898D01*
G01X11900Y9844D02*
G01X11900Y9415D01*
G01X11900Y9844D02*
G01X12084Y9844D01*
G01X12144Y9825D01*
G01X12165Y9805D01*
G01X12185Y9763D01*
G01X12185Y9723D01*
G01X12165Y9682D01*
G01X12144Y9661D01*
G01X12084Y9640D01*
G01X11900Y9640D01*
G01X12043Y9640D02*
G01X12185Y9415D01*
G01X12526Y9844D02*
G01X12321Y9559D01*
G01X12627Y9559D01*
G01X12526Y9844D02*
G01X12526Y9415D01*
G01X14355Y17300D02*
G01X14784Y17300D01*
G01X14355Y17300D02*
G01X14355Y17484D01*
G01X14375Y17544D01*
G01X14394Y17565D01*
G01X14435Y17586D01*
G01X14497Y17586D01*
G01X14539Y17565D01*
G01X14559Y17544D01*
G01X14580Y17484D01*
G01X14580Y17300D01*
G01X14355Y17761D02*
G01X14355Y17986D01*
G01X14518Y17865D01*
G01X14518Y17926D01*
G01X14539Y17967D01*
G01X14559Y17986D01*
G01X14619Y18007D01*
G01X14660Y18007D01*
G01X14722Y17986D01*
G01X14764Y17946D01*
G01X14784Y17884D01*
G01X14784Y17823D01*
G01X14764Y17761D01*
G01X14743Y17742D01*
G01X14702Y17721D01*
G01X14255Y11900D02*
G01X14684Y11900D01*
G01X14255Y11900D02*
G01X14255Y12084D01*
G01X14275Y12144D01*
G01X14294Y12165D01*
G01X14335Y12186D01*
G01X14397Y12186D01*
G01X14439Y12165D01*
G01X14459Y12144D01*
G01X14480Y12084D01*
G01X14480Y11900D01*
G01X14255Y12526D02*
G01X14540Y12321D01*
G01X14540Y12628D01*
G01X14255Y12526D02*
G01X14684Y12526D01*
G01X1000Y1544D02*
G01X1000Y1115D01*
G01X1000Y1544D02*
G01X1184Y1544D01*
G01X1244Y1525D01*
G01X1265Y1505D01*
G01X1286Y1463D01*
G01X1286Y1401D01*
G01X1265Y1361D01*
G01X1244Y1340D01*
G01X1184Y1319D01*
G01X1000Y1319D01*
G01X1421Y1463D02*
G01X1461Y1484D01*
G01X1523Y1544D01*
G01X1523Y1115D01*
G01X14400Y20744D02*
G01X14400Y20315D01*
G01X14400Y20744D02*
G01X14584Y20744D01*
G01X14644Y20725D01*
G01X14665Y20705D01*
G01X14685Y20663D01*
G01X14685Y20602D01*
G01X14665Y20561D01*
G01X14644Y20540D01*
G01X14584Y20519D01*
G01X14400Y20519D01*
G01X14842Y20642D02*
G01X14842Y20663D01*
G01X14861Y20705D01*
G01X14882Y20725D01*
G01X14923Y20744D01*
G01X15005Y20744D01*
G01X15046Y20725D01*
G01X15067Y20705D01*
G01X15086Y20663D01*
G01X15086Y20623D01*
G01X15067Y20582D01*
G01X15026Y20519D01*
G01X14821Y20315D01*
G01X15107Y20315D01*
G01X15100Y5844D02*
G01X15100Y5415D01*
G01X15100Y5844D02*
G01X15284Y5844D01*
G01X15344Y5825D01*
G01X15365Y5805D01*
G01X15385Y5763D01*
G01X15385Y5701D01*
G01X15365Y5661D01*
G01X15344Y5640D01*
G01X15284Y5619D01*
G01X15100Y5619D01*
G01X15767Y5844D02*
G01X15561Y5844D01*
G01X15542Y5661D01*
G01X15561Y5682D01*
G01X15623Y5701D01*
G01X15685Y5701D01*
G01X15746Y5682D01*
G01X15786Y5640D01*
G01X15807Y5580D01*
G01X15807Y5538D01*
G01X15786Y5476D01*
G01X15746Y5436D01*
G01X15685Y5415D01*
G01X15623Y5415D01*
G01X15561Y5436D01*
G01X15542Y5457D01*
G01X15521Y5498D01*
G01X13300Y23044D02*
G01X13300Y22615D01*
G01X13585Y23044D02*
G01X13585Y22615D01*
G01X13300Y22840D02*
G01X13585Y22840D01*
G01X13721Y22963D02*
G01X13761Y22984D01*
G01X13823Y23044D01*
G01X13823Y22615D01*

%LPD*%
G36*
G01X371Y18342D02*
G01X357Y18340D01*
G01X344Y18342D01*
G01X333Y18350D01*
G01X327Y18361D01*
G01X325Y18376D01*
G01X327Y18389D01*
G01X333Y18400D01*
G01X344Y18408D01*
G01X357Y18411D01*
G01X371Y18408D01*
G01X382Y18400D01*
G01X388Y18389D01*
G01X390Y18376D01*
G01X388Y18361D01*
G01X382Y18350D01*
G01X371Y18342D01*
G37*

%LPC*%

%LPD*%
G36*
G01X784Y18351D02*
G01X461Y18351D01*
G01X461Y18400D01*
G01X784Y18400D01*
G01X784Y18351D01*
G37*

%LPC*%

%LPD*%
G36*
G01X784Y18511D02*
G01X461Y18511D01*
G01X461Y18552D01*
G01X507Y18557D01*
G01X507Y18559D01*
G01X486Y18582D01*
G01X469Y18608D01*
G01X457Y18636D01*
G01X453Y18667D01*
G01X455Y18691D01*
G01X461Y18712D01*
G01X471Y18729D01*
G01X484Y18742D01*
G01X502Y18753D01*
G01X524Y18761D01*
G01X549Y18765D01*
G01X578Y18767D01*
G01X784Y18767D01*
G01X784Y18717D01*
G01X584Y18717D01*
G01X544Y18714D01*
G01X516Y18702D01*
G01X500Y18682D01*
G01X494Y18653D01*
G01X498Y18628D01*
G01X508Y18607D01*
G01X525Y18584D01*
G01X548Y18561D01*
G01X784Y18561D01*
G01X784Y18511D01*
G37*

%LPC*%

%LPD*%
G36*
G01X501Y18838D02*
G01X463Y18838D01*
G01X461Y18882D01*
G01X405Y18882D01*
G01X381Y18884D01*
G01X360Y18888D01*
G01X342Y18895D01*
G01X327Y18905D01*
G01X315Y18918D01*
G01X307Y18934D01*
G01X301Y18952D01*
G01X300Y18973D01*
G01X300Y18988D01*
G01X302Y19002D01*
G01X305Y19015D01*
G01X309Y19027D01*
G01X348Y19015D01*
G01X344Y19006D01*
G01X341Y18996D01*
G01X339Y18987D01*
G01X338Y18978D01*
G01X343Y18958D01*
G01X355Y18943D01*
G01X376Y18934D01*
G01X405Y18932D01*
G01X461Y18932D01*
G01X461Y19001D01*
G01X501Y19001D01*
G01X501Y18932D01*
G01X784Y18932D01*
G01X784Y18882D01*
G01X501Y18882D01*
G01X501Y18838D01*
G37*

%LPC*%

%LPD*%
G36*
G01X371Y19069D02*
G01X357Y19067D01*
G01X344Y19069D01*
G01X333Y19077D01*
G01X327Y19088D01*
G01X325Y19102D01*
G01X327Y19115D01*
G01X333Y19127D01*
G01X344Y19135D01*
G01X357Y19138D01*
G01X371Y19135D01*
G01X382Y19127D01*
G01X388Y19115D01*
G01X390Y19102D01*
G01X388Y19088D01*
G01X382Y19077D01*
G01X371Y19069D01*
G37*

%LPC*%

%LPD*%
G36*
G01X784Y19078D02*
G01X461Y19078D01*
G01X461Y19126D01*
G01X784Y19126D01*
G01X784Y19078D01*
G37*

%LPC*%

%LPD*%
G36*
G01X784Y19240D02*
G01X461Y19240D01*
G01X461Y19278D01*
G01X507Y19284D01*
G01X507Y19286D01*
G01X486Y19309D01*
G01X469Y19335D01*
G01X457Y19363D01*
G01X453Y19394D01*
G01X455Y19418D01*
G01X461Y19439D01*
G01X471Y19456D01*
G01X484Y19469D01*
G01X502Y19480D01*
G01X524Y19488D01*
G01X549Y19492D01*
G01X578Y19494D01*
G01X784Y19494D01*
G01X784Y19444D01*
G01X584Y19444D01*
G01X544Y19441D01*
G01X516Y19429D01*
G01X500Y19409D01*
G01X494Y19380D01*
G01X498Y19356D01*
G01X508Y19334D01*
G01X525Y19311D01*
G01X548Y19288D01*
G01X784Y19288D01*
G01X784Y19240D01*
G37*

%LPC*%

%LPD*%
G36*
G01X786Y19684D02*
G01X461Y19553D01*
G01X461Y19603D01*
G01X646Y19673D01*
G01X668Y19681D01*
G01X691Y19689D01*
G01X715Y19697D01*
G01X738Y19705D01*
G01X738Y19709D01*
G01X715Y19715D01*
G01X691Y19722D01*
G01X668Y19729D01*
G01X646Y19736D01*
G01X461Y19796D01*
G01X461Y19844D01*
G01X815Y19721D01*
G01X837Y19712D01*
G01X858Y19702D01*
G01X877Y19690D01*
G01X894Y19677D01*
G01X907Y19662D01*
G01X918Y19644D01*
G01X924Y19625D01*
G01X926Y19603D01*
G01X926Y19592D01*
G01X925Y19582D01*
G01X922Y19573D01*
G01X919Y19565D01*
G01X880Y19576D01*
G01X882Y19581D01*
G01X883Y19587D01*
G01X884Y19594D01*
G01X884Y19601D01*
G01X879Y19627D01*
G01X864Y19648D01*
G01X841Y19664D01*
G01X811Y19677D01*
G01X786Y19684D01*
G37*

%LPC*%

%LPD*%
G36*
G01X501Y19869D02*
G01X463Y19869D01*
G01X461Y19921D01*
G01X369Y19926D01*
G01X369Y19967D01*
G01X461Y19967D01*
G01X461Y20057D01*
G01X501Y20057D01*
G01X501Y19967D01*
G01X688Y19967D01*
G01X715Y19969D01*
G01X736Y19977D01*
G01X748Y19993D01*
G01X753Y20017D01*
G01X752Y20027D01*
G01X750Y20037D01*
G01X747Y20046D01*
G01X744Y20055D01*
G01X780Y20065D01*
G01X785Y20051D01*
G01X789Y20036D01*
G01X792Y20022D01*
G01X792Y20007D01*
G01X790Y19984D01*
G01X785Y19965D01*
G01X776Y19950D01*
G01X763Y19938D01*
G01X748Y19929D01*
G01X730Y19923D01*
G01X709Y19919D01*
G01X686Y19919D01*
G01X501Y19919D01*
G01X501Y19869D01*
G37*

%LPC*%

%LPD*%
G36*
G01X784Y20130D02*
G01X307Y20130D01*
G01X307Y20180D01*
G01X440Y20180D01*
G01X507Y20178D01*
G01X486Y20201D01*
G01X469Y20227D01*
G01X457Y20255D01*
G01X453Y20286D01*
G01X455Y20310D01*
G01X461Y20330D01*
G01X471Y20347D01*
G01X484Y20361D01*
G01X502Y20372D01*
G01X524Y20380D01*
G01X549Y20384D01*
G01X578Y20386D01*
G01X784Y20386D01*
G01X784Y20336D01*
G01X584Y20336D01*
G01X544Y20332D01*
G01X516Y20320D01*
G01X500Y20301D01*
G01X494Y20271D01*
G01X498Y20248D01*
G01X508Y20225D01*
G01X525Y20203D01*
G01X548Y20180D01*
G01X784Y20180D01*
G01X784Y20130D01*
G37*

%LPC*%

%LPD*%
G36*
G01X371Y20484D02*
G01X357Y20482D01*
G01X344Y20484D01*
G01X333Y20492D01*
G01X327Y20503D01*
G01X325Y20517D01*
G01X327Y20530D01*
G01X333Y20541D01*
G01X344Y20549D01*
G01X357Y20552D01*
G01X371Y20549D01*
G01X382Y20541D01*
G01X388Y20530D01*
G01X390Y20517D01*
G01X388Y20503D01*
G01X382Y20492D01*
G01X371Y20484D01*
G37*

%LPC*%

%LPD*%
G36*
G01X784Y20492D02*
G01X461Y20492D01*
G01X461Y20540D01*
G01X784Y20540D01*
G01X784Y20492D01*
G37*

%LPC*%

%LPD*%
G36*
G01X784Y20653D02*
G01X461Y20653D01*
G01X461Y20692D01*
G01X507Y20698D01*
G01X507Y20700D01*
G01X486Y20723D01*
G01X469Y20749D01*
G01X457Y20777D01*
G01X453Y20809D01*
G01X455Y20832D01*
G01X461Y20853D01*
G01X471Y20870D01*
G01X484Y20884D01*
G01X502Y20894D01*
G01X524Y20902D01*
G01X549Y20906D01*
G01X578Y20907D01*
G01X784Y20907D01*
G01X784Y20859D01*
G01X584Y20859D01*
G01X544Y20855D01*
G01X516Y20843D01*
G01X500Y20823D01*
G01X494Y20794D01*
G01X498Y20770D01*
G01X508Y20748D01*
G01X525Y20726D01*
G01X548Y20702D01*
G01X784Y20702D01*
G01X784Y20653D01*
G37*

%LPC*%

%LPD*%
G36*
G01X784Y21017D02*
G01X307Y21017D01*
G01X307Y21063D01*
G01X638Y21063D01*
G01X638Y21065D01*
G01X461Y21209D01*
G01X461Y21263D01*
G01X590Y21155D01*
G01X784Y21278D01*
G01X784Y21226D01*
G01X625Y21128D01*
G01X698Y21063D01*
G01X784Y21063D01*
G01X784Y21017D01*
G37*

%LPC*%

%LPD*%
G36*
G01X769Y21342D02*
G01X753Y21338D01*
G01X737Y21342D01*
G01X725Y21350D01*
G01X717Y21361D01*
G01X715Y21376D01*
G01X717Y21390D01*
G01X725Y21402D01*
G01X737Y21409D01*
G01X753Y21413D01*
G01X769Y21409D01*
G01X782Y21402D01*
G01X790Y21390D01*
G01X792Y21376D01*
G01X790Y21361D01*
G01X782Y21350D01*
G01X769Y21342D01*
G37*

%LPC*%

%LPD*%
G36*
G01X649Y21482D02*
G01X623Y21480D01*
G01X597Y21482D01*
G01X573Y21486D01*
G01X551Y21493D01*
G01X531Y21502D01*
G01X513Y21513D01*
G01X497Y21527D01*
G01X484Y21542D01*
G01X473Y21558D01*
G01X464Y21576D01*
G01X458Y21595D01*
G01X454Y21614D01*
G01X453Y21634D01*
G01X456Y21664D01*
G01X464Y21690D01*
G01X476Y21711D01*
G01X492Y21730D01*
G01X523Y21703D01*
G01X511Y21689D01*
G01X502Y21673D01*
G01X496Y21656D01*
G01X494Y21636D01*
G01X496Y21615D01*
G01X503Y21595D01*
G01X514Y21577D01*
G01X529Y21561D01*
G01X548Y21549D01*
G01X570Y21540D01*
G01X596Y21534D01*
G01X623Y21532D01*
G01X651Y21534D01*
G01X676Y21539D01*
G01X698Y21548D01*
G01X716Y21560D01*
G01X731Y21575D01*
G01X742Y21593D01*
G01X749Y21613D01*
G01X751Y21636D01*
G01X749Y21658D01*
G01X742Y21679D01*
G01X731Y21698D01*
G01X719Y21715D01*
G01X751Y21736D01*
G01X768Y21713D01*
G01X781Y21687D01*
G01X790Y21660D01*
G01X792Y21632D01*
G01X791Y21611D01*
G01X787Y21591D01*
G01X781Y21572D01*
G01X772Y21555D01*
G01X761Y21538D01*
G01X748Y21524D01*
G01X732Y21511D01*
G01X715Y21501D01*
G01X695Y21492D01*
G01X673Y21486D01*
G01X649Y21482D01*
G37*

%LPC*%

%LPD*%
G36*
G01X649Y21772D02*
G01X623Y21771D01*
G01X597Y21772D01*
G01X573Y21776D01*
G01X551Y21783D01*
G01X531Y21792D01*
G01X513Y21803D01*
G01X497Y21815D01*
G01X484Y21830D01*
G01X473Y21846D01*
G01X464Y21863D01*
G01X458Y21881D01*
G01X454Y21900D01*
G01X453Y21919D01*
G01X454Y21939D01*
G01X458Y21958D01*
G01X464Y21976D01*
G01X473Y21993D01*
G01X484Y22009D01*
G01X497Y22024D01*
G01X513Y22036D01*
G01X531Y22048D01*
G01X551Y22056D01*
G01X573Y22063D01*
G01X597Y22067D01*
G01X623Y22069D01*
G01X649Y22067D01*
G01X673Y22063D01*
G01X695Y22056D01*
G01X715Y22048D01*
G01X732Y22036D01*
G01X748Y22024D01*
G01X761Y22009D01*
G01X772Y21993D01*
G01X781Y21976D01*
G01X787Y21958D01*
G01X791Y21939D01*
G01X792Y21919D01*
G01X791Y21900D01*
G01X787Y21881D01*
G01X781Y21863D01*
G01X772Y21846D01*
G01X761Y21830D01*
G01X748Y21815D01*
G01X732Y21803D01*
G01X715Y21792D01*
G01X695Y21783D01*
G01X673Y21776D01*
G01X649Y21772D01*
G37*

%LPC*%
G36*
G01X596Y21822D02*
G01X623Y21821D01*
G01X651Y21822D01*
G01X676Y21828D01*
G01X698Y21836D01*
G01X716Y21848D01*
G01X731Y21863D01*
G01X742Y21880D01*
G01X749Y21898D01*
G01X751Y21919D01*
G01X749Y21940D01*
G01X742Y21959D01*
G01X731Y21976D01*
G01X716Y21991D01*
G01X698Y22003D01*
G01X676Y22011D01*
G01X651Y22017D01*
G01X623Y22019D01*
G01X596Y22017D01*
G01X570Y22011D01*
G01X548Y22003D01*
G01X529Y21991D01*
G01X514Y21976D01*
G01X503Y21959D01*
G01X496Y21940D01*
G01X494Y21919D01*
G01X496Y21898D01*
G01X503Y21880D01*
G01X514Y21863D01*
G01X529Y21848D01*
G01X548Y21836D01*
G01X570Y21828D01*
G01X596Y21822D01*
G37*

%LPD*%
G36*
G01X784Y22157D02*
G01X461Y22157D01*
G01X461Y22196D01*
G01X509Y22202D01*
G01X509Y22203D01*
G01X487Y22226D01*
G01X469Y22250D01*
G01X457Y22276D01*
G01X453Y22303D01*
G01X457Y22337D01*
G01X469Y22363D01*
G01X489Y22381D01*
G01X515Y22394D01*
G01X490Y22420D01*
G01X470Y22446D01*
G01X457Y22473D01*
G01X453Y22502D01*
G01X455Y22525D01*
G01X461Y22545D01*
G01X471Y22561D01*
G01X484Y22575D01*
G01X502Y22586D01*
G01X524Y22594D01*
G01X549Y22598D01*
G01X578Y22600D01*
G01X784Y22600D01*
G01X784Y22551D01*
G01X584Y22551D01*
G01X544Y22547D01*
G01X516Y22535D01*
G01X500Y22515D01*
G01X494Y22488D01*
G01X498Y22467D01*
G01X508Y22447D01*
G01X525Y22425D01*
G01X548Y22403D01*
G01X784Y22403D01*
G01X784Y22353D01*
G01X584Y22353D01*
G01X544Y22350D01*
G01X516Y22338D01*
G01X500Y22319D01*
G01X494Y22290D01*
G01X498Y22271D01*
G01X508Y22250D01*
G01X525Y22228D01*
G01X548Y22205D01*
G01X784Y22205D01*
G01X784Y22157D01*
G37*

%LPC*%

%LPD*%
G54D30*
G01X5382Y7448D02*
G01X5326Y7393D01*
G01X5300Y7311D01*
G01X5300Y7202D01*
G01X5326Y7121D01*
G01X5382Y7066D01*
G01X5436Y7066D01*
G01X5490Y7093D01*
G01X5517Y7121D01*
G01X5544Y7175D01*
G01X5600Y7339D01*
G01X5626Y7393D01*
G01X5653Y7421D01*
G01X5709Y7448D01*
G01X5790Y7448D01*
G01X5844Y7393D01*
G01X5871Y7311D01*
G01X5871Y7202D01*
G01X5844Y7121D01*
G01X5790Y7066D01*
G01X5300Y7710D02*
G01X5763Y7710D01*
G01X5844Y7737D01*
G01X5871Y7791D01*
G01X5871Y7846D01*
G01X5490Y7628D02*
G01X5490Y7819D01*
G01X5490Y8353D02*
G01X5871Y8353D01*
G01X5571Y8353D02*
G01X5517Y8299D01*
G01X5490Y8244D01*
G01X5490Y8162D01*
G01X5517Y8108D01*
G01X5571Y8053D01*
G01X5653Y8026D01*
G01X5709Y8026D01*
G01X5790Y8053D01*
G01X5844Y8108D01*
G01X5871Y8162D01*
G01X5871Y8244D01*
G01X5844Y8299D01*
G01X5790Y8353D01*
G01X5571Y8833D02*
G01X5517Y8806D01*
G01X5490Y8724D01*
G01X5490Y8642D01*
G01X5517Y8561D01*
G01X5571Y8533D01*
G01X5626Y8561D01*
G01X5653Y8615D01*
G01X5682Y8751D01*
G01X5709Y8806D01*
G01X5763Y8833D01*
G01X5790Y8833D01*
G01X5844Y8806D01*
G01X5871Y8724D01*
G01X5871Y8642D01*
G01X5844Y8561D01*
G01X5790Y8533D01*
G01X5300Y9013D02*
G01X5871Y9013D01*
G01X5600Y9013D02*
G01X5517Y9095D01*
G01X5490Y9150D01*
G01X5490Y9231D01*
G01X5517Y9286D01*
G01X5600Y9313D01*
G01X5871Y9313D01*
G01X5300Y9493D02*
G01X5871Y9493D01*
G01X5300Y9493D02*
G01X5300Y9739D01*
G01X5326Y9821D01*
G01X5353Y9848D01*
G01X5409Y9875D01*
G01X5463Y9875D01*
G01X5517Y9848D01*
G01X5544Y9821D01*
G01X5571Y9739D01*
G01X5571Y9493D02*
G01X5571Y9739D01*
G01X5600Y9821D01*
G01X5626Y9848D01*
G01X5682Y9875D01*
G01X5763Y9875D01*
G01X5817Y9848D01*
G01X5844Y9821D01*
G01X5871Y9739D01*
G01X5871Y9493D01*
G01X5300Y10055D02*
G01X5871Y10055D01*
G01X5300Y10055D02*
G01X5300Y10301D01*
G01X5326Y10382D01*
G01X5353Y10410D01*
G01X5409Y10437D01*
G01X5463Y10437D01*
G01X5517Y10410D01*
G01X5544Y10382D01*
G01X5571Y10301D01*
G01X5571Y10055D01*
G01X5571Y10246D02*
G01X5871Y10437D01*
G01X5300Y10617D02*
G01X5871Y10617D01*
G01X5300Y10617D02*
G01X5300Y10808D01*
G01X5326Y10890D01*
G01X5382Y10944D01*
G01X5436Y10971D01*
G01X5517Y10999D01*
G01X5653Y10999D01*
G01X5736Y10971D01*
G01X5790Y10944D01*
G01X5844Y10890D01*
G01X5871Y10808D01*
G01X5871Y10617D01*
G01X8000Y22899D02*
G01X8000Y22421D01*
G01X8000Y22899D02*
G01X8205Y22899D01*
G01X8273Y22876D01*
G01X8294Y22853D01*
G01X8317Y22808D01*
G01X8317Y22762D01*
G01X8294Y22717D01*
G01X8273Y22694D01*
G01X8205Y22671D01*
G01X8000Y22671D01*
G01X8159Y22671D02*
G01X8317Y22421D01*
G01X8467Y22603D02*
G01X8740Y22603D01*
G01X8740Y22649D01*
G01X8717Y22694D01*
G01X8694Y22717D01*
G01X8650Y22740D01*
G01X8582Y22740D01*
G01X8536Y22717D01*
G01X8490Y22671D01*
G01X8467Y22603D01*
G01X8467Y22558D01*
G01X8490Y22490D01*
G01X8536Y22444D01*
G01X8582Y22421D01*
G01X8650Y22421D01*
G01X8694Y22444D01*
G01X8740Y22490D01*
G01X8890Y22740D02*
G01X9026Y22421D01*
G01X9163Y22740D02*
G01X9026Y22421D01*
G01X9664Y22808D02*
G01X9709Y22831D01*
G01X9777Y22899D01*
G01X9777Y22421D01*
G01X9950Y22535D02*
G01X9927Y22512D01*
G01X9950Y22490D01*
G01X9972Y22512D01*
G01X9950Y22535D01*
G01X10259Y22899D02*
G01X10190Y22876D01*
G01X10144Y22808D01*
G01X10122Y22694D01*
G01X10122Y22626D01*
G01X10144Y22512D01*
G01X10190Y22444D01*
G01X10259Y22421D01*
G01X10305Y22421D01*
G01X10372Y22444D01*
G01X10418Y22512D01*
G01X10440Y22626D01*
G01X10440Y22694D01*
G01X10418Y22808D01*
G01X10372Y22876D01*
G01X10305Y22899D01*
G01X10259Y22899D01*

%LPD*%
G36*
G01X16557Y266D02*
G01X16522Y263D01*
G01X16494Y265D01*
G01X16468Y269D01*
G01X16445Y276D01*
G01X16426Y286D01*
G01X16410Y299D01*
G01X16398Y314D01*
G01X16391Y332D01*
G01X16389Y351D01*
G01X16392Y372D01*
G01X16401Y392D01*
G01X16416Y410D01*
G01X16436Y426D01*
G01X16436Y428D01*
G01X16425Y437D01*
G01X16416Y449D01*
G01X16410Y464D01*
G01X16407Y482D01*
G01X16411Y501D01*
G01X16419Y517D01*
G01X16431Y531D01*
G01X16443Y542D01*
G01X16443Y544D01*
G01X16428Y559D01*
G01X16415Y579D01*
G01X16405Y604D01*
G01X16402Y632D01*
G01X16404Y657D01*
G01X16411Y679D01*
G01X16422Y699D01*
G01X16437Y715D01*
G01X16455Y728D01*
G01X16475Y738D01*
G01X16497Y744D01*
G01X16522Y746D01*
G01X16535Y746D01*
G01X16546Y744D01*
G01X16557Y742D01*
G01X16567Y738D01*
G01X16678Y738D01*
G01X16678Y701D01*
G01X16610Y701D01*
G01X16621Y687D01*
G01X16630Y671D01*
G01X16636Y651D01*
G01X16639Y630D01*
G01X16636Y606D01*
G01X16629Y584D01*
G01X16619Y565D01*
G01X16604Y548D01*
G01X16587Y535D01*
G01X16567Y526D01*
G01X16545Y519D01*
G01X16522Y517D01*
G01X16509Y518D01*
G01X16496Y521D01*
G01X16483Y524D01*
G01X16472Y530D01*
G01X16463Y521D01*
G01X16456Y512D01*
G01X16451Y501D01*
G01X16450Y488D01*
G01X16452Y474D01*
G01X16462Y462D01*
G01X16480Y454D01*
G01X16507Y451D01*
G01X16572Y451D01*
G01X16598Y450D01*
G01X16621Y447D01*
G01X16640Y441D01*
G01X16656Y433D01*
G01X16668Y423D01*
G01X16677Y409D01*
G01X16682Y393D01*
G01X16684Y375D01*
G01X16681Y353D01*
G01X16672Y333D01*
G01X16658Y314D01*
G01X16640Y297D01*
G01X16617Y283D01*
G01X16589Y273D01*
G01X16557Y266D01*
G37*

%LPC*%
G36*
G01X16494Y556D02*
G01X16522Y551D01*
G01X16549Y556D01*
G01X16572Y573D01*
G01X16588Y598D01*
G01X16593Y632D01*
G01X16588Y665D01*
G01X16572Y689D01*
G01X16549Y705D01*
G01X16522Y711D01*
G01X16493Y705D01*
G01X16470Y689D01*
G01X16454Y665D01*
G01X16448Y632D01*
G01X16455Y598D01*
G01X16470Y573D01*
G01X16494Y556D01*
G37*
G36*
G01X16488Y303D02*
G01X16528Y298D01*
G01X16552Y300D01*
G01X16573Y304D01*
G01X16591Y311D01*
G01X16606Y320D01*
G01X16619Y330D01*
G01X16628Y342D01*
G01X16634Y355D01*
G01X16635Y367D01*
G01X16631Y388D01*
G01X16618Y401D01*
G01X16597Y408D01*
G01X16568Y411D01*
G01X16509Y411D01*
G01X16500Y411D01*
G01X16490Y412D01*
G01X16479Y413D01*
G01X16468Y415D01*
G01X16451Y402D01*
G01X16440Y388D01*
G01X16434Y373D01*
G01X16431Y357D01*
G01X16438Y333D01*
G01X16457Y315D01*
G01X16488Y303D01*
G37*

%LPD*%
G36*
G01X14289Y266D02*
G01X14253Y263D01*
G01X14225Y265D01*
G01X14199Y269D01*
G01X14176Y276D01*
G01X14156Y286D01*
G01X14141Y299D01*
G01X14129Y314D01*
G01X14122Y332D01*
G01X14119Y351D01*
G01X14123Y372D01*
G01X14132Y392D01*
G01X14147Y410D01*
G01X14168Y426D01*
G01X14168Y428D01*
G01X14156Y437D01*
G01X14146Y449D01*
G01X14140Y464D01*
G01X14138Y482D01*
G01X14141Y501D01*
G01X14150Y517D01*
G01X14161Y531D01*
G01X14173Y542D01*
G01X14173Y544D01*
G01X14158Y559D01*
G01X14145Y579D01*
G01X14135Y604D01*
G01X14131Y632D01*
G01X14134Y657D01*
G01X14141Y679D01*
G01X14152Y699D01*
G01X14167Y715D01*
G01X14185Y728D01*
G01X14205Y738D01*
G01X14228Y744D01*
G01X14252Y746D01*
G01X14264Y746D01*
G01X14277Y744D01*
G01X14287Y742D01*
G01X14297Y738D01*
G01X14410Y738D01*
G01X14410Y701D01*
G01X14340Y701D01*
G01X14352Y687D01*
G01X14360Y671D01*
G01X14366Y651D01*
G01X14368Y630D01*
G01X14366Y606D01*
G01X14360Y584D01*
G01X14349Y565D01*
G01X14335Y548D01*
G01X14318Y535D01*
G01X14298Y526D01*
G01X14276Y519D01*
G01X14252Y517D01*
G01X14239Y518D01*
G01X14227Y521D01*
G01X14214Y524D01*
G01X14202Y530D01*
G01X14194Y521D01*
G01X14187Y512D01*
G01X14182Y501D01*
G01X14181Y488D01*
G01X14183Y474D01*
G01X14193Y462D01*
G01X14210Y454D01*
G01X14239Y451D01*
G01X14302Y451D01*
G01X14329Y450D01*
G01X14352Y447D01*
G01X14371Y441D01*
G01X14387Y433D01*
G01X14399Y423D01*
G01X14407Y409D01*
G01X14413Y393D01*
G01X14414Y375D01*
G01X14411Y353D01*
G01X14403Y333D01*
G01X14389Y314D01*
G01X14371Y297D01*
G01X14347Y283D01*
G01X14320Y273D01*
G01X14289Y266D01*
G37*

%LPC*%
G36*
G01X14218Y303D02*
G01X14260Y298D01*
G01X14283Y300D01*
G01X14304Y304D01*
G01X14322Y311D01*
G01X14337Y320D01*
G01X14350Y330D01*
G01X14359Y342D01*
G01X14364Y355D01*
G01X14367Y367D01*
G01X14362Y388D01*
G01X14349Y401D01*
G01X14328Y408D01*
G01X14298Y411D01*
G01X14239Y411D01*
G01X14231Y411D01*
G01X14220Y412D01*
G01X14209Y413D01*
G01X14197Y415D01*
G01X14182Y402D01*
G01X14171Y388D01*
G01X14164Y373D01*
G01X14163Y357D01*
G01X14169Y333D01*
G01X14188Y315D01*
G01X14218Y303D01*
G37*
G36*
G01X14224Y556D02*
G01X14252Y551D01*
G01X14279Y556D01*
G01X14303Y573D01*
G01X14318Y598D01*
G01X14325Y632D01*
G01X14319Y665D01*
G01X14303Y689D01*
G01X14280Y705D01*
G01X14252Y711D01*
G01X14223Y705D01*
G01X14201Y689D01*
G01X14185Y665D01*
G01X14180Y632D01*
G01X14185Y598D01*
G01X14201Y573D01*
G01X14224Y556D01*
G37*

%LPD*%
G36*
G01X11581Y275D02*
G01X11559Y273D01*
G01X11548Y273D01*
G01X11539Y275D01*
G01X11530Y277D01*
G01X11522Y280D01*
G01X11531Y319D01*
G01X11537Y317D01*
G01X11543Y316D01*
G01X11550Y315D01*
G01X11556Y315D01*
G01X11582Y320D01*
G01X11603Y335D01*
G01X11619Y358D01*
G01X11632Y388D01*
G01X11639Y413D01*
G01X11509Y738D01*
G01X11560Y738D01*
G01X11628Y553D01*
G01X11636Y531D01*
G01X11645Y508D01*
G01X11653Y484D01*
G01X11661Y461D01*
G01X11664Y461D01*
G01X11671Y484D01*
G01X11678Y508D01*
G01X11685Y531D01*
G01X11692Y553D01*
G01X11752Y738D01*
G01X11801Y738D01*
G01X11677Y384D01*
G01X11668Y362D01*
G01X11658Y341D01*
G01X11647Y322D01*
G01X11633Y305D01*
G01X11618Y292D01*
G01X11601Y281D01*
G01X11581Y275D01*
G37*

%LPC*%

%LPD*%
G36*
G01X15493Y409D02*
G01X15461Y407D01*
G01X15441Y408D01*
G01X15421Y412D01*
G01X15402Y418D01*
G01X15384Y427D01*
G01X15368Y438D01*
G01X15353Y451D01*
G01X15339Y467D01*
G01X15328Y484D01*
G01X15319Y504D01*
G01X15313Y526D01*
G01X15309Y550D01*
G01X15307Y576D01*
G01X15309Y601D01*
G01X15313Y625D01*
G01X15320Y647D01*
G01X15329Y667D01*
G01X15339Y685D01*
G01X15352Y701D01*
G01X15367Y714D01*
G01X15382Y726D01*
G01X15399Y735D01*
G01X15416Y741D01*
G01X15434Y745D01*
G01X15452Y746D01*
G01X15481Y744D01*
G01X15507Y736D01*
G01X15528Y723D01*
G01X15547Y706D01*
G01X15561Y684D01*
G01X15572Y658D01*
G01X15578Y629D01*
G01X15581Y596D01*
G01X15580Y587D01*
G01X15580Y579D01*
G01X15579Y572D01*
G01X15577Y565D01*
G01X15356Y565D01*
G01X15360Y540D01*
G01X15366Y516D01*
G01X15376Y496D01*
G01X15389Y478D01*
G01X15405Y465D01*
G01X15423Y454D01*
G01X15444Y448D01*
G01X15468Y446D01*
G01X15490Y447D01*
G01X15511Y453D01*
G01X15531Y461D01*
G01X15550Y473D01*
G01X15568Y440D01*
G01X15546Y427D01*
G01X15521Y416D01*
G01X15493Y409D01*
G37*

%LPC*%
G36*
G01X15360Y625D02*
G01X15356Y601D01*
G01X15538Y601D01*
G01X15536Y626D01*
G01X15532Y647D01*
G01X15525Y665D01*
G01X15515Y680D01*
G01X15503Y692D01*
G01X15489Y701D01*
G01X15472Y706D01*
G01X15453Y707D01*
G01X15436Y706D01*
G01X15419Y700D01*
G01X15403Y692D01*
G01X15389Y680D01*
G01X15377Y665D01*
G01X15367Y646D01*
G01X15360Y625D01*
G37*

%LPD*%
G36*
G01X15164Y409D02*
G01X15132Y407D01*
G01X15111Y408D01*
G01X15091Y412D01*
G01X15072Y418D01*
G01X15054Y427D01*
G01X15038Y438D01*
G01X15023Y451D01*
G01X15010Y467D01*
G01X14999Y484D01*
G01X14990Y504D01*
G01X14984Y526D01*
G01X14980Y550D01*
G01X14978Y576D01*
G01X14980Y601D01*
G01X14984Y625D01*
G01X14990Y647D01*
G01X15000Y667D01*
G01X15010Y685D01*
G01X15023Y701D01*
G01X15037Y714D01*
G01X15052Y726D01*
G01X15069Y735D01*
G01X15087Y741D01*
G01X15105Y745D01*
G01X15123Y746D01*
G01X15152Y744D01*
G01X15177Y736D01*
G01X15199Y723D01*
G01X15217Y706D01*
G01X15232Y684D01*
G01X15242Y658D01*
G01X15248Y629D01*
G01X15251Y596D01*
G01X15251Y587D01*
G01X15250Y579D01*
G01X15250Y572D01*
G01X15248Y565D01*
G01X15027Y565D01*
G01X15031Y540D01*
G01X15037Y516D01*
G01X15047Y496D01*
G01X15060Y478D01*
G01X15076Y465D01*
G01X15094Y454D01*
G01X15115Y448D01*
G01X15139Y446D01*
G01X15161Y447D01*
G01X15182Y453D01*
G01X15202Y461D01*
G01X15221Y473D01*
G01X15239Y440D01*
G01X15217Y427D01*
G01X15192Y416D01*
G01X15164Y409D01*
G37*

%LPC*%
G36*
G01X15031Y625D02*
G01X15027Y601D01*
G01X15207Y601D01*
G01X15206Y626D01*
G01X15202Y647D01*
G01X15195Y665D01*
G01X15185Y680D01*
G01X15173Y692D01*
G01X15159Y701D01*
G01X15142Y706D01*
G01X15123Y707D01*
G01X15106Y706D01*
G01X15089Y700D01*
G01X15073Y692D01*
G01X15060Y680D01*
G01X15048Y665D01*
G01X15038Y646D01*
G01X15031Y625D01*
G37*

%LPD*%
G36*
G01X11978Y407D02*
G01X11964Y407D01*
G01X11940Y409D01*
G01X11921Y414D01*
G01X11906Y423D01*
G01X11893Y436D01*
G01X11885Y451D01*
G01X11879Y469D01*
G01X11876Y490D01*
G01X11875Y513D01*
G01X11875Y698D01*
G01X11825Y698D01*
G01X11825Y736D01*
G01X11876Y738D01*
G01X11881Y830D01*
G01X11922Y830D01*
G01X11922Y738D01*
G01X12013Y738D01*
G01X12013Y698D01*
G01X11922Y698D01*
G01X11922Y511D01*
G01X11925Y484D01*
G01X11933Y463D01*
G01X11949Y451D01*
G01X11973Y446D01*
G01X11983Y447D01*
G01X11993Y450D01*
G01X12002Y452D01*
G01X12011Y455D01*
G01X12022Y419D01*
G01X12007Y414D01*
G01X11993Y410D01*
G01X11978Y407D01*
G37*

%LPC*%

%LPD*%
G36*
G01X16100Y415D02*
G01X16052Y415D01*
G01X16052Y738D01*
G01X16090Y738D01*
G01X16096Y692D01*
G01X16097Y692D01*
G01X16122Y713D01*
G01X16147Y730D01*
G01X16175Y742D01*
G01X16206Y746D01*
G01X16230Y744D01*
G01X16251Y738D01*
G01X16268Y728D01*
G01X16281Y715D01*
G01X16292Y697D01*
G01X16300Y675D01*
G01X16304Y650D01*
G01X16306Y621D01*
G01X16306Y415D01*
G01X16256Y415D01*
G01X16256Y615D01*
G01X16253Y655D01*
G01X16241Y683D01*
G01X16222Y699D01*
G01X16193Y705D01*
G01X16168Y701D01*
G01X16146Y691D01*
G01X16123Y675D01*
G01X16100Y651D01*
G01X16100Y415D01*
G37*

%LPC*%

%LPD*%
G36*
G01X15939Y415D02*
G01X15889Y415D01*
G01X15889Y738D01*
G01X15939Y738D01*
G01X15939Y415D01*
G37*

%LPC*%

%LPD*%
G36*
G01X15711Y415D02*
G01X15663Y415D01*
G01X15663Y738D01*
G01X15702Y738D01*
G01X15706Y680D01*
G01X15709Y680D01*
G01X15727Y707D01*
G01X15749Y728D01*
G01X15773Y742D01*
G01X15801Y746D01*
G01X15810Y746D01*
G01X15819Y745D01*
G01X15827Y743D01*
G01X15835Y740D01*
G01X15826Y698D01*
G01X15818Y700D01*
G01X15811Y701D01*
G01X15803Y702D01*
G01X15794Y703D01*
G01X15773Y698D01*
G01X15751Y685D01*
G01X15730Y661D01*
G01X15711Y626D01*
G01X15711Y415D01*
G37*

%LPC*%

%LPD*%
G36*
G01X14689Y415D02*
G01X14640Y415D01*
G01X14640Y738D01*
G01X14681Y738D01*
G01X14685Y692D01*
G01X14686Y692D01*
G01X14711Y713D01*
G01X14737Y730D01*
G01X14765Y742D01*
G01X14797Y746D01*
G01X14820Y744D01*
G01X14840Y738D01*
G01X14857Y728D01*
G01X14871Y715D01*
G01X14882Y697D01*
G01X14889Y675D01*
G01X14894Y650D01*
G01X14896Y621D01*
G01X14896Y415D01*
G01X14846Y415D01*
G01X14846Y615D01*
G01X14842Y655D01*
G01X14830Y683D01*
G01X14810Y699D01*
G01X14781Y705D01*
G01X14757Y701D01*
G01X14735Y691D01*
G01X14713Y675D01*
G01X14689Y651D01*
G01X14689Y415D01*
G37*

%LPC*%

%LPD*%
G36*
G01X14527Y415D02*
G01X14480Y415D01*
G01X14480Y738D01*
G01X14527Y738D01*
G01X14527Y415D01*
G37*

%LPC*%

%LPD*%
G36*
G01X13831Y415D02*
G01X13782Y415D01*
G01X13782Y738D01*
G01X13822Y738D01*
G01X13827Y692D01*
G01X13828Y692D01*
G01X13852Y713D01*
G01X13878Y730D01*
G01X13906Y742D01*
G01X13938Y746D01*
G01X13961Y744D01*
G01X13982Y738D01*
G01X13999Y728D01*
G01X14013Y715D01*
G01X14023Y697D01*
G01X14031Y675D01*
G01X14035Y650D01*
G01X14036Y621D01*
G01X14036Y415D01*
G01X13988Y415D01*
G01X13988Y615D01*
G01X13984Y655D01*
G01X13972Y683D01*
G01X13952Y699D01*
G01X13923Y705D01*
G01X13899Y701D01*
G01X13877Y691D01*
G01X13855Y675D01*
G01X13831Y651D01*
G01X13831Y415D01*
G37*

%LPC*%

%LPD*%
G36*
G01X13693Y415D02*
G01X13435Y415D01*
G01X13435Y853D01*
G01X13686Y853D01*
G01X13686Y811D01*
G01X13485Y811D01*
G01X13485Y667D01*
G01X13655Y667D01*
G01X13655Y626D01*
G01X13485Y626D01*
G01X13485Y457D01*
G01X13693Y457D01*
G01X13693Y415D01*
G37*

%LPC*%

%LPD*%
G36*
G01X13019Y415D02*
G01X12972Y415D01*
G01X12972Y892D01*
G01X13019Y892D01*
G01X13019Y561D01*
G01X13022Y561D01*
G01X13165Y738D01*
G01X13219Y738D01*
G01X13111Y609D01*
G01X13235Y415D01*
G01X13181Y415D01*
G01X13084Y575D01*
G01X13019Y501D01*
G01X13019Y415D01*
G37*

%LPC*%

%LPD*%
G36*
G01X12657Y415D02*
G01X12610Y415D01*
G01X12610Y738D01*
G01X12648Y738D01*
G01X12653Y692D01*
G01X12656Y692D01*
G01X12680Y713D01*
G01X12705Y730D01*
G01X12733Y742D01*
G01X12764Y746D01*
G01X12788Y744D01*
G01X12809Y738D01*
G01X12826Y728D01*
G01X12839Y715D01*
G01X12850Y697D01*
G01X12857Y675D01*
G01X12862Y650D01*
G01X12864Y621D01*
G01X12864Y415D01*
G01X12814Y415D01*
G01X12814Y615D01*
G01X12811Y655D01*
G01X12799Y683D01*
G01X12780Y699D01*
G01X12751Y705D01*
G01X12726Y701D01*
G01X12704Y691D01*
G01X12681Y675D01*
G01X12657Y651D01*
G01X12657Y415D01*
G37*

%LPC*%

%LPD*%
G36*
G01X12497Y415D02*
G01X12447Y415D01*
G01X12447Y738D01*
G01X12497Y738D01*
G01X12497Y415D01*
G37*

%LPC*%

%LPD*%
G36*
G01X12135Y415D02*
G01X12086Y415D01*
G01X12086Y892D01*
G01X12135Y892D01*
G01X12135Y759D01*
G01X12134Y692D01*
G01X12157Y713D01*
G01X12183Y730D01*
G01X12210Y742D01*
G01X12242Y746D01*
G01X12265Y744D01*
G01X12286Y738D01*
G01X12303Y728D01*
G01X12317Y715D01*
G01X12327Y697D01*
G01X12335Y675D01*
G01X12339Y650D01*
G01X12340Y621D01*
G01X12340Y415D01*
G01X12292Y415D01*
G01X12292Y615D01*
G01X12288Y655D01*
G01X12276Y683D01*
G01X12256Y699D01*
G01X12227Y705D01*
G01X12203Y701D01*
G01X12181Y691D01*
G01X12159Y675D01*
G01X12135Y651D01*
G01X12135Y415D01*
G37*

%LPC*%

%LPD*%
G36*
G01X11243Y415D02*
G01X11194Y415D01*
G01X11194Y738D01*
G01X11235Y738D01*
G01X11239Y692D01*
G01X11242Y692D01*
G01X11265Y713D01*
G01X11291Y730D01*
G01X11319Y742D01*
G01X11351Y746D01*
G01X11374Y744D01*
G01X11395Y738D01*
G01X11412Y728D01*
G01X11426Y715D01*
G01X11436Y697D01*
G01X11443Y675D01*
G01X11448Y650D01*
G01X11450Y621D01*
G01X11450Y415D01*
G01X11401Y415D01*
G01X11401Y615D01*
G01X11397Y655D01*
G01X11385Y683D01*
G01X11365Y699D01*
G01X11335Y705D01*
G01X11311Y701D01*
G01X11289Y691D01*
G01X11268Y675D01*
G01X11243Y651D01*
G01X11243Y415D01*
G37*

%LPC*%

%LPD*%
G36*
G01X11081Y415D02*
G01X11032Y415D01*
G01X11032Y738D01*
G01X11081Y738D01*
G01X11081Y415D01*
G37*

%LPC*%

%LPD*%
G36*
G01X10888Y415D02*
G01X10838Y415D01*
G01X10838Y698D01*
G01X10793Y698D01*
G01X10793Y736D01*
G01X10838Y738D01*
G01X10838Y794D01*
G01X10839Y818D01*
G01X10843Y839D01*
G01X10850Y857D01*
G01X10860Y872D01*
G01X10873Y884D01*
G01X10889Y892D01*
G01X10908Y898D01*
G01X10930Y900D01*
G01X10943Y899D01*
G01X10957Y897D01*
G01X10970Y894D01*
G01X10981Y890D01*
G01X10972Y851D01*
G01X10962Y855D01*
G01X10952Y858D01*
G01X10943Y860D01*
G01X10934Y861D01*
G01X10913Y856D01*
G01X10899Y844D01*
G01X10890Y823D01*
G01X10888Y794D01*
G01X10888Y738D01*
G01X10956Y738D01*
G01X10956Y698D01*
G01X10888Y698D01*
G01X10888Y415D01*
G37*

%LPC*%

%LPD*%
G36*
G01X10517Y415D02*
G01X10468Y415D01*
G01X10468Y738D01*
G01X10507Y738D01*
G01X10513Y692D01*
G01X10514Y692D01*
G01X10538Y713D01*
G01X10564Y730D01*
G01X10592Y742D01*
G01X10623Y746D01*
G01X10647Y744D01*
G01X10667Y738D01*
G01X10684Y728D01*
G01X10698Y715D01*
G01X10709Y697D01*
G01X10717Y675D01*
G01X10721Y650D01*
G01X10722Y621D01*
G01X10722Y415D01*
G01X10672Y415D01*
G01X10672Y615D01*
G01X10669Y655D01*
G01X10657Y683D01*
G01X10638Y699D01*
G01X10609Y705D01*
G01X10585Y701D01*
G01X10562Y691D01*
G01X10540Y675D01*
G01X10517Y651D01*
G01X10517Y415D01*
G37*

%LPC*%

%LPD*%
G36*
G01X10350Y415D02*
G01X10300Y415D01*
G01X10300Y853D01*
G01X10350Y853D01*
G01X10350Y415D01*
G37*

%LPC*%

%LPD*%
G36*
G01X15928Y811D02*
G01X15914Y809D01*
G01X15901Y811D01*
G01X15889Y817D01*
G01X15882Y828D01*
G01X15880Y842D01*
G01X15882Y855D01*
G01X15889Y866D01*
G01X15901Y872D01*
G01X15914Y875D01*
G01X15928Y872D01*
G01X15939Y866D01*
G01X15947Y855D01*
G01X15950Y842D01*
G01X15947Y828D01*
G01X15939Y817D01*
G01X15928Y811D01*
G37*

%LPC*%

%LPD*%
G36*
G01X14518Y811D02*
G01X14503Y809D01*
G01X14489Y811D01*
G01X14478Y817D01*
G01X14471Y828D01*
G01X14468Y842D01*
G01X14471Y855D01*
G01X14478Y866D01*
G01X14489Y872D01*
G01X14503Y875D01*
G01X14518Y872D01*
G01X14529Y866D01*
G01X14537Y855D01*
G01X14539Y842D01*
G01X14537Y828D01*
G01X14529Y817D01*
G01X14518Y811D01*
G37*

%LPC*%

%LPD*%
G36*
G01X12486Y811D02*
G01X12472Y809D01*
G01X12458Y811D01*
G01X12447Y817D01*
G01X12439Y828D01*
G01X12436Y842D01*
G01X12439Y855D01*
G01X12447Y866D01*
G01X12458Y872D01*
G01X12472Y875D01*
G01X12486Y872D01*
G01X12497Y866D01*
G01X12505Y855D01*
G01X12507Y842D01*
G01X12505Y828D01*
G01X12497Y817D01*
G01X12486Y811D01*
G37*

%LPC*%

%LPD*%
G36*
G01X11071Y811D02*
G01X11057Y809D01*
G01X11043Y811D01*
G01X11032Y817D01*
G01X11025Y828D01*
G01X11022Y842D01*
G01X11025Y855D01*
G01X11032Y866D01*
G01X11043Y872D01*
G01X11057Y875D01*
G01X11071Y872D01*
G01X11082Y866D01*
G01X11090Y855D01*
G01X11093Y842D01*
G01X11090Y828D01*
G01X11082Y817D01*
G01X11071Y811D01*
G37*

%LPC*%

%LPD*%
G54D32*
G75*
G01X15993Y4250D02*
G3X15993Y4248I-118J-1D01*
G01*
G54D10*
G75*
G01X16269Y3850D02*
G3X16269Y3350I0J-250D01*
G01*
G54D33*
G75*
G01X16363Y5096D02*
G3X16363Y5095I-59J-1D01*
G01*
G54D10*
G75*
G01X15598Y8100D02*
G3X14600Y8100I-499J609D01*
G01*
G75*
G01X16191Y14495D02*
G03X16191Y14495I-591J0D01*
G01*
M00*
M02*
