;PTH Drill file created by EasyEDA 
M48
INCH,LZ
;Holesize 1 = 0.012 INCH
T01C0.012
;Holesize 2 = 0.028 INCH
T02C0.028
;Holesize 3 = 0.028 INCH
T03C0.028
;Holesize 4 = 0.035 INCH
T04C0.035
;Holesize 5 = 0.035 INCH
T05C0.035
;Holesize 6 = 0.035 INCH
T06C0.035
;Holesize 7 = 0.043 INCH
T07C0.043
%
G05
G90
T01
X010400Y017900
X003253Y018284
X003103Y005898
X009615Y015640
X011943Y014084
X009638Y018934
X011394Y017063
X003128Y009671
T02
X015600Y014200
X015600Y014790
T03
X011089Y012869
X012089Y012869
T04
X015600Y016800
X015600Y017800
X015500Y011400
X015500Y012400
X001000Y002300
X001000Y003300
X001000Y004300
X001000Y005300
X001000Y006300
X001000Y007300
X001000Y008300
X001000Y009300
X001000Y010300
X001000Y011300
X001000Y012300
X001000Y013300
X001000Y014300
X001000Y015300
X001000Y016300
X001000Y017300
X015400Y019500
X014400Y019500
X013400Y019500
X015600Y006600
X014600Y006600
T05
X013300Y009000
X010300Y009000
X013300Y010500
X010300Y010500
T06
X002800Y002100
X003800Y002100
X004800Y002100
X005800Y002100
X006800Y002100
X007800Y002100
X008800Y002100
X009800Y002100
X010800Y002100
X011800Y002100
X012800Y002100
X013800Y002100
X014800Y002100
X015800Y002100
X002800Y005100
X003800Y005100
X004800Y005100
X005800Y005100
X006800Y005100
X007800Y005100
X008800Y005100
X009800Y005100
X010800Y005100
X011800Y005100
X012800Y005100
X013800Y005100
X014800Y005100
X015800Y005100
X015100Y009261
X015100Y008261
T07
X011300Y021700
X012300Y021700
X013300Y021700
X014300Y021700
X015300Y021700
M30
